<svg xmlns="http://www.w3.org/2000/svg" xmlns:xlink="http://www.w3.org/1999/xlink" viewBox="0,0,256,256" width="24px" height="24px" fill-rule="nonzero"><g fill="#ffffff" fill-rule="nonzero" stroke="none" stroke-width="1" stroke-linecap="butt" stroke-linejoin="miter" stroke-miterlimit="10" stroke-dasharray="" stroke-dashoffset="0" font-family="none" font-weight="none" font-size="none" text-anchor="none" style="mix-blend-mode: normal"><g transform="scale(10.66667,10.66667)"><path d="M11.98438,0.98633c-0.55152,0.00862 -0.99193,0.46214 -0.98437,1.01367v1.05859c-4.16132,0.46369 -7.47772,3.78008 -7.94141,7.94141h-1.05859c-0.36064,-0.0051 -0.69608,0.18438 -0.87789,0.49587c-0.18181,0.3115 -0.18181,0.69676 0,1.00825c0.18181,0.3115 0.51725,0.50097 0.87789,0.49587h1.05859c0.46369,4.16133 3.78008,7.47772 7.94141,7.94141v1.05859c-0.0051,0.36064 0.18438,0.69608 0.49587,0.87789c0.3115,0.18181 0.69676,0.18181 1.00825,0c0.3115,-0.18181 0.50097,-0.51725 0.49587,-0.87789v-1.05859c4.16133,-0.46369 7.47772,-3.78008 7.94141,-7.94141h1.05859c0.36064,0.0051 0.69608,-0.18438 0.87789,-0.49587c0.18181,-0.3115 0.18181,-0.69676 0,-1.00825c-0.18181,-0.3115 -0.51725,-0.50097 -0.87789,-0.49587h-1.05859c-0.46369,-4.16132 -3.78008,-7.47772 -7.94141,-7.94141v-1.05859c0.0037,-0.2703 -0.10218,-0.53059 -0.29351,-0.72155c-0.19133,-0.19097 -0.45182,-0.29634 -0.72212,-0.29212zM11,5.07813v2.02344c-1.9511,0.40048 -3.49796,1.94734 -3.89844,3.89844h-2.02344c0.43722,-3.07177 2.85011,-5.48465 5.92188,-5.92187zM13,5.07813c3.07177,0.43722 5.48465,2.85011 5.92188,5.92188h-2.02344c-0.40048,-1.9511 -1.94734,-3.49796 -3.89844,-3.89844zM11.91016,9.00977c0.06042,0.00551 0.12122,0.00551 0.18164,0c1.62429,0.04903 2.9082,1.35308 2.9082,2.99023c0,1.6687 -1.3313,3 -3,3c-1.6687,0 -3,-1.3313 -3,-3c0,-1.63782 1.28493,-2.94221 2.91016,-2.99023zM12,11c-0.55228,0 -1,0.44772 -1,1c0,0.55228 0.44772,1 1,1c0.55228,0 1,-0.44772 1,-1c0,-0.55228 -0.44772,-1 -1,-1zM5.07813,13h2.02344c0.40048,1.9511 1.94734,3.49796 3.89844,3.89844v2.02344c-3.07177,-0.43723 -5.48465,-2.85011 -5.92187,-5.92187zM16.89844,13h2.02344c-0.43723,3.07177 -2.85011,5.48465 -5.92187,5.92188v-2.02344c1.9511,-0.40048 3.49796,-1.94734 3.89844,-3.89844z"></path></g></g></svg>